<?xml version="1.0" encoding="UTF-8" standalone="no"?>
<svg
   xmlns:dc="http://purl.org/dc/elements/1.1/"
   xmlns:cc="http://creativecommons.org/ns#"
   xmlns:rdf="http://www.w3.org/1999/02/22-rdf-syntax-ns#"
   xmlns:svg="http://www.w3.org/2000/svg"
   xmlns="http://www.w3.org/2000/svg"
   xmlns:xlink="http://www.w3.org/1999/xlink"
   id="svg8"
   version="1.1"
   viewBox="0 0 210 297"
   height="297mm"
   width="210mm">
  <defs
     id="defs2" />
  <metadata
     id="metadata5">
    <rdf:RDF>
      <cc:Work
         rdf:about="">
        <dc:format>image/svg+xml</dc:format>
        <dc:type
           rdf:resource="http://purl.org/dc/dcmitype/StillImage" />
        <dc:title></dc:title>
      </cc:Work>
    </rdf:RDF>
  </metadata>
  <g
     id="layer1">
    <g
       id="layer1-6"
       transform="matrix(0.26458333,0,0,0.26458333,9.2890195,-10.678244)">
      <path
         id="path3055"
         d="m 365.3125,184.8125 a 46.724621,46.342246 0 0 0 -17.90625,4.53125 l -244.34375,116.75 a 46.724621,46.342246 0 0 0 -25.28125,31.4375 L 17.5,599.78125 A 46.724621,46.342246 0 0 0 23.84375,635.3125 46.724621,46.342246 0 0 0 26.5,639 l 169.125,210.28125 a 46.724621,46.342246 0 0 0 36.53125,17.4375 L 503.375,866.65625 A 46.724621,46.342246 0 0 0 539.90625,849.25 L 708.96875,638.9375 A 46.724621,46.342246 0 0 0 718,599.71875 l -60.375,-262.25 a 46.724621,46.342246 0 0 0 -25.28125,-31.4375 l -244.375,-116.6875 A 46.724621,46.342246 0 0 0 365.3125,184.8125 Z"
         style="fill:#326ce5;fill-opacity:1;stroke:#ffffff;stroke-width:0;stroke-miterlimit:4;stroke-dasharray:none;stroke-opacity:1" />
      <circle
         r="190.58905"
         cy="537.90814"
         cx="367.39581"
         id="path6209"
         style="opacity:0.98999999;fill:#ffffff;fill-opacity:1;fill-rule:evenodd;stroke:none;stroke-width:0.94366199;stroke-opacity:1" />
      <g
         id="g6422">
        <g
           id="g6207"
           transform="matrix(0.39054971,0,0,0.39054971,275.21163,271.48774)"
           style="fill:#326ce5;fill-opacity:1;fill-rule:nonzero">
          <g
             id="g6148"
             transform="translate(0,-540.36)"
             style="fill:#326ce5;fill-opacity:1;fill-rule:nonzero">
	<g
   id="g6146"
   style="fill:#326ce5;fill-opacity:1;fill-rule:nonzero">
		<g
   id="g6144"
   style="fill:#326ce5;fill-opacity:1;fill-rule:nonzero">
			<path
   id="path6140"
   d="m 276.075,881.51 h -17.6 c -3.2,-8.7 -11.8,-15.1 -21.6,-15.1 -10.4,0 -19.4,6.3 -22.7,15.1 h -17.6 c -4.1,0 -7.5,3.4 -7.5,7.5 v 69.8 c 0,4.1 3.4,7.5 7.5,7.5 h 79.5 v 0 c 4.2,0 7.5,-3.4 7.5,-7.5 v -69.8 c 0,-4.1 -3.4,-7.5 -7.5,-7.5 z m -7.4,69.8 h -64.5 v -54.8 h 16.2 c 4.1,0 7.5,-3.4 7.5,-7.5 0,-4.2 4.1,-7.6 9.1,-7.6 4.1,0 7.9,3.6 7.9,7.6 0,4.1 3.4,7.5 7.5,7.5 h 16.3 z"
   style="fill:#fdfeff;fill-opacity:1;fill-rule:nonzero;stroke:none" />

			<path
   id="path6142"
   d="m 310.562,830.31 v 0 c 0,-0.1 0,-0.3 0,-0.4 -3.7,-29 -11,-57.3 -21.8,-84.4 l -11.8,-31.2 c -5.9,-18.4 -9.1,-38.6 -9.1,-56.9 v -33.6 c 1.9,-1 3.7,-2.5 5,-4.3 2.2,-3 2.9,-6.6 2,-10 l -5.9,-54.1 c -0.1,-0.9 -0.4,-1.8 -0.8,-2.6 -1.2,-2.3 -3.3,-6.5 -7.8,-8.1 -0.8,-0.7 -1.8,-1.2 -2.9,-1.5 -14.3,-3.8 -28.7,-3.8 -43,0 -1.1,0.3 -2.1,0.8 -2.9,1.6 -4.2,1.5 -7.2,5.7 -7.4,10.9 l -7.1,54.3 c 0,0.3 -0.1,0.6 -0.1,1 0,6 3.4,11.2 8.3,13.4 v 33.2 c 0,19.4 -3.6,39.5 -10.2,56.7 l -11.9,31.5 c -11.6,31.9 -19.1,65.6 -22.9,103 0,0.1 0,0.1 0,0.2 -2.7,32.9 -3.5,61.7 -2.4,88 v 63.8 c 0,3.9 2.9,7.1 6.8,7.5 l 11.8,1.2 c 19.9,2.4 39.7,3.5 59.7,3.5 19.9,0 40,-1.2 60.5,-3.5 l 11.8,-1.2 c 3.8,-0.4 6.8,-3.6 6.8,-7.5 v -64 c 0.1,-36.4 -2.3,-72 -4.7,-106.5 z m -91.4,-272.2 c 0.4,-0.2 0.8,-0.5 1.2,-0.9 10.5,-2.5 21.1,-2.5 31.6,0 0.7,0.6 1.5,1.1 2.4,1.4 l 5.6,51.8 h -47 -0.7 z m -10,161.5 c 7.2,-18.8 11.2,-40.9 11.2,-62 v -32.2 h 0.1 32.4 v 32.1 c 0,19.8 3.5,41.7 9.8,61.6 0,0.1 0.1,0.3 0.1,0.4 l 1.8,4.8 -27.7,16.5 -29.3,-16.9 z m -11.7,31.3 v 0 l 4.9,-12.9 34.8,20.1 33,-19.6 4.7,12.4 c 0,0 0,0.1 0.1,0.1 0.4,0.9 0.7,1.8 1.1,2.8 l -39.4,25.1 -39.9,-25.4 c 0.1,-0.9 0.4,-1.8 0.7,-2.6 z m 97.8,243.5 h -0.1 c -39.9,4.6 -78.1,4.6 -116.8,0 -0.1,0 -0.1,0 -0.2,0 l -5.1,-0.5 v -57.2 c 0,-0.1 0,-0.2 0,-0.3 -1.1,-25.8 -0.3,-54 2.3,-86.3 3,-29.4 8.4,-56.4 16.3,-82 l 44.8,28.6 44.6,-28.5 c 6.9,20.5 11.8,41.8 14.5,63.3 2.3,34.1 4.7,69.4 4.7,105.1 v 57.3 h 0.1 z"
   style="fill:#fdfeff;fill-opacity:1;fill-rule:nonzero" />

		</g>

	</g>

</g>
          <g
             id="g6150"
             style="fill:#326ce5;fill-opacity:1;fill-rule:nonzero">
</g>
          <g
             id="g6152"
             style="fill:#326ce5;fill-opacity:1;fill-rule:nonzero">
</g>
          <g
             id="g6154"
             style="fill:#326ce5;fill-opacity:1;fill-rule:nonzero">
</g>
          <g
             id="g6156"
             style="fill:#326ce5;fill-opacity:1;fill-rule:nonzero">
</g>
          <g
             id="g6158"
             style="fill:#326ce5;fill-opacity:1;fill-rule:nonzero">
</g>
          <g
             id="g6160"
             style="fill:#326ce5;fill-opacity:1;fill-rule:nonzero">
</g>
          <g
             id="g6162"
             style="fill:#326ce5;fill-opacity:1;fill-rule:nonzero">
</g>
          <g
             id="g6164"
             style="fill:#326ce5;fill-opacity:1;fill-rule:nonzero">
</g>
          <g
             id="g6166"
             style="fill:#326ce5;fill-opacity:1;fill-rule:nonzero">
</g>
          <g
             id="g6168"
             style="fill:#326ce5;fill-opacity:1;fill-rule:nonzero">
</g>
          <g
             id="g6170"
             style="fill:#326ce5;fill-opacity:1;fill-rule:nonzero">
</g>
          <g
             id="g6172"
             style="fill:#326ce5;fill-opacity:1;fill-rule:nonzero">
</g>
          <g
             id="g6174"
             style="fill:#326ce5;fill-opacity:1;fill-rule:nonzero">
</g>
          <g
             id="g6176"
             style="fill:#326ce5;fill-opacity:1;fill-rule:nonzero">
</g>
          <g
             id="g6178"
             style="fill:#326ce5;fill-opacity:1;fill-rule:nonzero">
</g>
        </g>
        <path
           style="opacity:0.98999999;fill:#326ce5;fill-opacity:1;fill-rule:nonzero;stroke:none;stroke-width:0.57241285;stroke-opacity:1"
           d="m 362.0313,346.2188 c -2.57655,-1.49407 -4.82001,-2.85186 -4.98546,-3.01731 -0.16546,-0.16546 0.33358,-2.29863 1.10898,-4.74038 2.32619,-7.32521 3.12319,-13.42952 3.12319,-23.92077 v -9.65604 h 6.22542 6.22543 l 0.30227,11.87757 c 0.26223,10.30442 0.50637,12.71153 1.84326,18.17411 0.84755,3.4631 1.6525,6.81171 1.78878,7.44137 0.19997,0.92393 -0.64786,1.66945 -4.39399,3.86378 -2.55297,1.49543 -5.07185,2.71338 -5.59751,2.70656 -0.52565,-0.007 -3.06382,-1.23482 -5.64037,-2.72889 z"
           id="path6214" />
        <path
           style="opacity:0.98999999;fill:#326ce5;fill-opacity:1;fill-rule:nonzero;stroke:none;stroke-width:0.57241285;stroke-opacity:1"
           d="m 358.61187,296.72742 c 0.17783,-1.02319 0.76914,-5.39934 1.314,-9.72479 0.54487,-4.32545 1.17077,-8.15585 1.39088,-8.51201 0.45818,-0.74134 9.14639,-1.02483 11.4707,-0.37428 1.4223,0.39809 1.52366,0.69303 2.16323,6.29455 0.36905,3.23229 0.83009,7.74438 1.02453,10.02688 l 0.35352,4.14999 h -9.0201 -9.02009 z"
           id="path6216" />
        <path
           style="opacity:0.98999999;fill:#326ce5;fill-opacity:1;fill-rule:nonzero;stroke:#ffffff;stroke-width:0.57241285;stroke-opacity:1"
           d="m 353.83664,449.42367 c -0.47224,-0.1236 -3.11249,-0.39163 -5.86723,-0.59562 l -5.00861,-0.37089 v -20.50994 c 0,-30.09774 1.13145,-43.01676 5.21322,-59.52509 0.97303,-3.93534 1.8445,-7.23456 1.93658,-7.3316 0.0921,-0.097 4.05906,2.30806 8.81549,5.34467 l 8.64805,5.52111 8.4433,-5.41833 c 4.64381,-2.98008 8.63164,-5.24836 8.86184,-5.04061 0.6652,0.60032 3.74111,12.98243 4.70634,18.94543 1.3998,8.64763 2.08692,21.5216 2.43306,45.58622 l 0.32225,22.4035 -2.79527,0.3352 c -3.36445,0.40344 -34.48931,0.97519 -35.70902,0.65595 z m 31.2302,-11.97964 c 1.0518,-0.76909 1.11113,-1.62741 1.11113,-16.07371 0,-17.77141 0.31488,-16.88139 -5.97664,-16.89326 -3.62211,-0.007 -3.79783,-0.0742 -4.98789,-1.9124 -3.29345,-5.08716 -12.07737,-5.03507 -15.36646,0.0911 -1.10465,1.72164 -1.28934,1.78504 -5.26236,1.80631 -6.09412,0.0326 -5.89969,-0.52878 -5.89969,17.0356 0,13.70595 0.0604,14.52955 1.14482,15.61399 1.09184,1.09184 1.90805,1.14482 17.6354,1.14482 13.33855,0 16.70295,-0.15529 17.60169,-0.81247 z"
           id="path6218" />
        <path
           style="opacity:0.98999999;fill:#326ce5;fill-opacity:1;fill-rule:nonzero;stroke:none;stroke-width:0.57241285;stroke-opacity:1"
           d="m 354.98147,421.3954 v -10.56456 l 4.14438,-0.16818 c 3.9918,-0.16199 4.17202,-0.2314 4.89525,-1.88542 1.39394,-3.18789 1.64907,-3.43448 3.55345,-3.43448 1.11089,0 2.04184,0.35091 2.27791,0.85862 2.11392,4.54636 1.76216,4.28024 5.89848,4.46236 l 3.84428,0.16925 v 10.56349 10.56348 h -12.30687 -12.30688 z"
           id="path6222" />
        <path
           style="opacity:0.98999999;fill:#326ce5;fill-opacity:1;fill-rule:nonzero;stroke:none;stroke-width:0.03828484;stroke-opacity:1"
           d="m 394.93452,319.30998 -7.75856,-4.94322 0.0206,-0.13563 c 0.0113,-0.0746 0.0632,-0.27345 0.11534,-0.44191 0.0804,-0.25997 2.02346,-5.41727 2.04914,-5.4389 0.005,-0.004 3.06311,1.75718 6.79604,3.914 l 6.78714,3.9215 4.52603,-2.68814 c 2.48932,-1.47848 5.38744,-3.20021 6.44027,-3.82606 1.5527,-0.92298 1.91878,-1.12607 1.93826,-1.07524 0.0132,0.0345 0.41553,1.09636 0.89406,2.35976 0.47854,1.2634 0.91761,2.40046 0.97572,2.5268 0.0581,0.12634 0.17064,0.39907 0.25005,0.60605 0.12222,0.31857 0.13625,0.38398 0.0914,0.42611 -0.0291,0.0274 -2.95595,1.8979 -6.50399,4.15675 -3.54805,2.25884 -6.97334,4.44027 -7.61176,4.84763 -0.63842,0.40735 -1.18111,0.73909 -1.20598,0.73718 -0.0249,-0.002 -3.53655,-2.22792 -7.80376,-4.94668 z"
           id="path6327"
           transform="translate(-35.108106,40.358718)" />
      </g>
      <use
         height="100%"
         width="100%"
         style="fill:#000000;stroke:none"
         id="use6426"
         transform="rotate(51.4286,368.00567,542.88887)"
         xlink:href="#g6422"
         y="0"
         x="0" />
      <use
         height="100%"
         width="100%"
         style="fill:#000000;stroke:none"
         id="use6428"
         transform="rotate(102.8572,368.00567,542.88887)"
         xlink:href="#g6422"
         y="0"
         x="0" />
      <use
         height="100%"
         width="100%"
         style="fill:#000000;stroke:none"
         id="use6430"
         transform="rotate(154.2858,368.00567,542.88887)"
         xlink:href="#g6422"
         y="0"
         x="0" />
      <use
         height="100%"
         width="100%"
         style="fill:#000000;stroke:none"
         id="use6432"
         transform="rotate(-154.2856,368.00567,542.88887)"
         xlink:href="#g6422"
         y="0"
         x="0" />
      <use
         height="100%"
         width="100%"
         style="fill:#000000;stroke:none"
         id="use6434"
         transform="rotate(-102.857,368.00567,542.88887)"
         xlink:href="#g6422"
         y="0"
         x="0" />
      <use
         height="100%"
         width="100%"
         style="fill:#000000;stroke:none"
         id="use6436"
         transform="rotate(-51.4284,368.00567,542.88887)"
         xlink:href="#g6422"
         y="0"
         x="0" />
    </g>
  </g>
</svg>
